<?xml version="1.0" encoding="UTF-8" standalone="no"?>
<svg
   xmlns:dc="http://purl.org/dc/elements/1.1/"
   xmlns:cc="http://creativecommons.org/ns#"
   xmlns:rdf="http://www.w3.org/1999/02/22-rdf-syntax-ns#"
   xmlns:svg="http://www.w3.org/2000/svg"
   xmlns="http://www.w3.org/2000/svg"
   xmlns:sodipodi="http://sodipodi.sourceforge.net/DTD/sodipodi-0.dtd"
   xmlns:inkscape="http://www.inkscape.org/namespaces/inkscape"
   viewBox="0 0 673 221"
   fill="none"
   version="1.1"
   id="svg869"
   sodipodi:docname="trax.svg"
   inkscape:version="1.0.1 (3bc2e813f5, 2020-09-07)"
   width="673"
   height="221">
  <metadata
     id="metadata875">
    <rdf:RDF>
      <cc:Work
         rdf:about="">
        <dc:format>image/svg+xml</dc:format>
        <dc:type
           rdf:resource="http://purl.org/dc/dcmitype/StillImage" />
        <dc:title></dc:title>
      </cc:Work>
    </rdf:RDF>
  </metadata>
  <defs
     id="defs873">
    <rect
       x="441.82184"
       y="91.561768"
       width="90.835083"
       height="95.195168"
       id="rect911" />
  </defs>
  <sodipodi:namedview
     pagecolor="#000000"
     bordercolor="#666666"
     borderopacity="1"
     objecttolerance="10"
     gridtolerance="10"
     guidetolerance="10"
     inkscape:pageopacity="0"
     inkscape:pageshadow="2"
     inkscape:window-width="1920"
     inkscape:window-height="1009"
     id="namedview871"
     showgrid="false"
     inkscape:pagecheckerboard="false"
     inkscape:zoom="1.1037906"
     inkscape:cx="383.14086"
     inkscape:cy="99.451923"
     inkscape:window-x="1912"
     inkscape:window-y="-8"
     inkscape:window-maximized="1"
     inkscape:current-layer="svg869"
     inkscape:document-rotation="0"
     showguides="true"
     inkscape:guide-bbox="true">
    <sodipodi:guide
       position="217.43255,107.75388"
       orientation="0,-1"
       id="guide146" />
  </sodipodi:namedview>
  <rect
     fill="#000000"
     id="rect855"
     width="0"
     height="0"
     x="0"
     y="0" />
  <path
     d="m 77.717907,119.915 c 5.2,0 9.4154,-4.215 9.4154,-9.415 0,-5.2 -4.2154,-9.415 -9.4154,-9.415 -5.2,0 -9.4154,4.215 -9.4154,9.415 0,5.2 4.2154,9.415 9.4154,9.415 z"
     fill="#ffffff"
     id="path865" />
  <path
     d="M 125.3438,169.48832 C 157.92199,146.68785 165.84848,101.79407 143.04801,69.215892 120.24771,36.637953 75.353758,28.711215 42.775574,51.511685 10.197638,74.311982 2.2710713,119.20618 25.07137,151.78412 c 22.800469,32.57818 67.694494,40.5045 100.27243,17.7042 z m 12.22365,-30.41189 c -4.34983,8.15843 -10.63855,15.44381 -18.73404,21.1096 -0.47543,0.33274 -0.95115,0.65616 -1.43126,0.97314 -0.79741,0.52634 -2.69558,-1.04212 -4.22412,-3.47589 l -7.86991,-12.52459 c -1.52854,-2.43377 -2.34727,-4.66554 -1.83789,-4.99982 0.30656,-0.20186 0.61022,-0.40803 0.91294,-0.6199 4.25773,-2.97985 7.66074,-6.72735 10.15241,-10.92346 1.46812,-2.47266 4.44166,-3.693 7.05895,-2.50394 l 13.48169,6.11941 c 2.61729,1.18906 3.8437,4.3075 2.49123,6.84545 z m -13.12599,-23.8926 14.7048,1.5947 c 2.85862,0.30855 4.93256,2.88156 4.36606,5.69845 -0.0136,0.0667 -0.0267,0.12985 -0.0424,0.19801 -0.57581,2.81719 -3.48715,4.36236 -6.2324,3.51698 l -14.14044,-4.34661 c -2.74732,-0.84381 -4.60323,-2.77847 -4.28652,-4.35021 0.31584,-1.57736 2.77216,-2.61989 5.63093,-2.31132 z M 104.93279,95.89156 c 8.06818,11.52812 5.26354,27.41331 -6.264663,35.48154 -11.528202,8.06823 -27.413113,5.26329 -35.48129,-6.26483 C 55.11866,113.58015 57.923217,97.69539 69.451419,89.627152 80.979621,81.558918 96.86461,84.363444 104.93279,95.89156 Z M 30.615435,81.805895 c 4.34772,-8.111907 10.615395,-15.354619 18.670414,-20.992079 0.528765,-0.370067 1.061707,-0.72963 1.596533,-1.081967 0.891457,-0.582404 2.861248,0.947643 4.379562,3.389309 l 7.808554,12.564229 c 1.51561,2.442337 2.269351,4.703844 1.693234,5.078977 -0.344261,0.22507 -0.687867,0.455785 -1.029016,0.694545 -3.91027,2.736678 -7.096969,6.116737 -9.523129,9.898263 -1.552329,2.420519 -4.635454,3.701928 -7.300895,2.625789 L 33.181425,88.440588 c -2.663147,-1.074083 -3.923434,-4.099125 -2.56599,-6.634693 z M 24.698088,98.08105 c 0.558296,-2.6781 3.452773,-4.166799 6.218103,-3.38271 L 45.14696,98.7375 c 2.764839,0.7832 4.624825,2.633 4.291837,4.15864 -0.335527,1.52742 -2.809778,2.53527 -5.667641,2.2224 l -14.711709,-1.59585 c -2.85942,-0.30811 -4.922113,-2.76181 -4.361359,-5.44164 z"
     fill="#ffffff"
     id="path867" />
  <text
     xml:space="preserve"
     style="font-style:normal;font-variant:normal;font-weight:normal;font-stretch:normal;font-size:153.333px;line-height:1.25;font-family:Gotham;-inkscape-font-specification:Gotham;fill:#ffffff"
     x="179.43294"
     y="154.4299"
     id="text907"><tspan
       sodipodi:role="line"
       id="tspan905"
       x="179.43294"
       y="154.4299"
       style="font-style:normal;font-variant:normal;font-weight:normal;font-stretch:normal;font-size:153.333px;font-family:Gotham;-inkscape-font-specification:Gotham">Musify</tspan></text>
  <text
     xml:space="preserve"
     id="text909"
     style="font-size:40px;line-height:1.25;font-family:Verdana;-inkscape-font-specification:'Verdana, Normal';white-space:pre;shape-inside:url(#rect911);" />
  <g
     id="g144"
     transform="matrix(0.29334882,0,0,0.29334882,28.241536,259.15887)">
    <path
       style="fill:#337180"
       d="m 435.03173,-506.75884 c 0,-137.022 -111.068,-248.082 -248.074,-248.082 -137.013993,0 -248.083993,111.06 -248.083993,248.082 0,137.001 111.07,248.07 248.083993,248.07 137.006,0 248.074,-111.069 248.074,-248.07 z"
       id="path32" />
    <g
       id="g38"
       transform="translate(-61.126263,-754.84384)">
      <path
         style="fill:#dff2f4"
         d="m 73.412,251.075 c 0,3.313 -2.686,6 -6,6 H 56.746 c -3.314,0 -6,-2.687 -6,-6 v -6.5 c 0,-3.313 2.686,-6 6,-6 h 10.666 c 3.314,0 6,2.687 6,6 z"
         id="path34" />
      <path
         style="fill:#dff2f4"
         d="m 104.412,266.825 c 0,3.313 -2.686,6 -6,6 H 87.746 c -3.314,0 -6,-2.687 -6,-6 v -37.5 c 0,-3.313 2.686,-6 6,-6 h 10.666 c 3.314,0 6,2.687 6,6 z"
         id="path36" />
    </g>
    <g
       id="g44"
       transform="translate(-61.126263,-754.84384)">
      <path
         style="fill:#b5e3ea"
         d="m 135.412,274.579 c 0,3.313 -2.686,6 -6,6 h -10.666 c -3.314,0 -6,-2.687 -6,-6 v -53 c 0,-3.313 2.686,-6 6,-6 h 10.666 c 3.314,0 6,2.687 6,6 z"
         id="path40" />
      <path
         style="fill:#b5e3ea"
         d="m 166.412,290.079 c 0,3.313 -2.686,6 -6,6 h -10.666 c -3.314,0 -6,-2.687 -6,-6 v -84 c 0,-3.313 2.686,-6 6,-6 h 10.666 c 3.314,0 6,2.687 6,6 z"
         id="path42" />
    </g>
    <g
       id="g50"
       transform="translate(-61.126263,-754.84384)">
      <path
         style="fill:#a3d5e0"
         d="m 197.412,321.079 c 0,3.313 -2.686,6 -6,6 h -10.666 c -3.314,0 -6,-2.687 -6,-6 v -146 c 0,-3.313 2.686,-6 6,-6 h 10.666 c 3.314,0 6,2.687 6,6 z"
         id="path46" />
      <path
         style="fill:#a3d5e0"
         d="m 228.412,336.579 c 0,3.313 -2.686,6 -6,6 h -10.666 c -3.314,0 -6,-2.687 -6,-6 v -177 c 0,-3.313 2.686,-6 6,-6 h 10.666 c 3.314,0 6,2.687 6,6 z"
         id="path48" />
    </g>
    <path
       style="fill:#8ec5ce"
       d="m 198.28573,-371.76484 c 0,3.313 -2.686,6 -6,6 h -10.666 c -3.314,0 -6,-2.687 -6,-6 v -270 c 0,-3.313 2.686,-6 6,-6 h 10.666 c 3.314,0 6,2.687 6,6 z"
       id="path52" />
    <g
       id="g58"
       transform="translate(-61.126263,-754.84384)">
      <path
         style="fill:#a3d5e0"
         d="m 290.412,321.079 c 0,3.313 -2.686,6 -6,6 h -10.666 c -3.314,0 -6,-2.687 -6,-6 v -146 c 0,-3.313 2.686,-6 6,-6 h 10.666 c 3.314,0 6,2.687 6,6 z"
         id="path54" />
      <path
         style="fill:#a3d5e0"
         d="m 321.412,290.079 c 0,3.313 -2.686,6 -6,6 h -10.666 c -3.314,0 -6,-2.687 -6,-6 v -84 c 0,-3.313 2.686,-6 6,-6 h 10.666 c 3.314,0 6,2.687 6,6 z"
         id="path56" />
    </g>
    <g
       id="g64"
       transform="translate(-61.126263,-754.84384)">
      <path
         style="fill:#b5e3ea"
         d="m 352.412,305.579 c 0,3.313 -2.686,6 -6,6 h -10.666 c -3.314,0 -6,-2.687 -6,-6 v -115 c 0,-3.313 2.686,-6 6,-6 h 10.666 c 3.314,0 6,2.687 6,6 z"
         id="path60" />
      <path
         style="fill:#b5e3ea"
         d="m 383.412,274.575 c 0,3.313 -2.686,6 -6,6 h -10.666 c -3.314,0 -6,-2.687 -6,-6 v -53 c 0,-3.313 2.686,-6 6,-6 h 10.666 c 3.314,0 6,2.687 6,6 z"
         id="path62" />
    </g>
    <g
       id="g70"
       transform="translate(-61.126263,-754.84384)">
      <path
         style="fill:#dff2f4"
         d="m 445.412,251.261 c 0,3.314 -2.686,6 -6,6 h -10.666 c -3.314,0 -6,-2.686 -6,-6 v -6.5 c 0,-3.313 2.686,-6 6,-6 h 10.666 c 3.314,0 6,2.687 6,6 z"
         id="path66" />
      <path
         style="fill:#dff2f4"
         d="m 414.412,259.079 c 0,3.313 -2.686,6 -6,6 h -10.666 c -3.314,0 -6,-2.687 -6,-6 v -22 c 0,-3.313 2.686,-6 6,-6 h 10.666 c 3.314,0 6,2.687 6,6 z"
         id="path68" />
    </g>
    <g
       id="g72" />
    <g
       id="g74" />
    <g
       id="g76" />
    <g
       id="g78" />
    <g
       id="g80" />
    <g
       id="g82" />
    <g
       id="g84" />
    <g
       id="g86" />
    <g
       id="g88" />
    <g
       id="g90" />
    <g
       id="g92" />
    <g
       id="g94" />
    <g
       id="g96" />
    <g
       id="g98" />
    <g
       id="g100" />
  </g>
</svg>
